<?xml version="1.0" standalone="no"?>
<!DOCTYPE svg PUBLIC "-//W3C//DTD SVG 20010904//EN"
 "http://www.w3.org/TR/2001/REC-SVG-20010904/DTD/svg10.dtd">
<svg version="1.0" xmlns="http://www.w3.org/2000/svg"
 width="1072.000000pt" height="1280.000000pt" viewBox="0 0 1072.000000 1280.000000"
 preserveAspectRatio="xMidYMid meet">
<metadata>
Created by potrace 1.15, written by Peter Selinger 2001-2017
</metadata>
<g transform="translate(0.000000,1280.000000) scale(0.100000,-0.100000)"
fill="#000000" stroke="none">
<path d="M240 12781 c-5 -11 -10 -29 -10 -41 0 -47 -46 -205 -116 -395 -96
-266 -108 -329 -108 -575 1 -295 33 -460 107 -552 66 -81 67 -84 66 -231 -1
-206 19 -254 140 -332 83 -54 113 -86 145 -155 l25 -55 -19 -117 c-10 -64 -24
-190 -31 -280 -16 -215 -5 -307 47 -388 58 -90 102 -190 125 -279 35 -137 26
-219 -55 -494 -113 -387 -153 -635 -143 -877 8 -186 40 -318 108 -451 113
-221 260 -320 496 -336 87 -6 91 -7 96 -31 8 -43 -11 -229 -48 -462 -49 -309
-64 -446 -72 -645 -17 -472 87 -904 305 -1267 l50 -83 6 -125 c36 -682 155
-1256 445 -2141 218 -666 253 -811 227 -956 -27 -152 -83 -232 -255 -360 -64
-48 -131 -103 -149 -122 -67 -72 -100 -172 -84 -258 4 -26 5 -61 1 -76 -9 -32
-5 -33 27 -8 22 18 28 18 72 4 26 -8 85 -20 132 -27 80 -11 85 -14 82 -35 -3
-20 -1 -21 17 -12 11 6 23 16 26 21 3 6 36 10 73 10 37 1 99 5 137 10 39 5 71
5 73 1 2 -5 19 0 40 10 20 11 43 19 52 19 30 0 159 48 232 86 83 44 166 121
198 184 14 28 28 83 36 150 19 143 38 1014 38 1795 1 681 -6 792 -56 970 -24
86 -28 174 -9 240 l11 41 83 -7 c122 -11 242 -33 527 -99 470 -108 563 -122
810 -122 215 -1 404 24 584 77 27 8 50 14 51 12 1 -1 10 -119 19 -262 9 -143
24 -325 31 -405 8 -80 26 -280 40 -445 37 -437 58 -552 185 -1000 97 -346 124
-468 155 -707 3 -25 6 -95 6 -155 1 -190 -50 -278 -254 -436 -184 -143 -247
-217 -283 -336 -16 -54 -18 -117 -4 -126 6 -3 10 -19 10 -36 0 -29 15 -40 22
-17 4 10 14 8 44 -4 43 -19 103 -34 177 -43 39 -5 47 -10 47 -27 l0 -21 23 21
c18 17 43 24 122 32 110 11 245 41 349 76 80 27 79 27 71 14 -14 -22 16 -8 31
15 9 14 20 25 25 25 19 0 138 77 181 118 64 60 81 101 118 281 17 85 36 164
42 174 11 21 9 46 -16 192 -27 161 -36 320 -36 617 -1 386 9 541 96 1468 30
318 39 795 17 878 -11 41 -10 43 15 59 161 96 269 179 401 308 84 82 146 135
148 127 3 -7 25 -39 49 -71 55 -73 151 -147 312 -240 221 -127 240 -144 414
-347 86 -100 111 -138 154 -227 60 -129 96 -316 98 -517 2 -253 -58 -349 -326
-524 -147 -97 -199 -171 -205 -296 -2 -41 0 -81 5 -89 13 -19 147 -49 279 -62
62 -7 110 -16 107 -20 -3 -5 -1 -9 5 -9 5 0 13 5 16 10 3 6 43 10 88 10 102 0
261 23 346 51 220 70 338 196 361 384 5 44 17 122 26 172 14 78 14 106 5 175
-23 161 -83 433 -152 686 -101 372 -118 453 -133 640 -12 143 -17 175 -39 218
-34 68 -91 122 -198 189 -116 74 -115 68 -98 356 11 208 8 499 -6 545 -5 17 7
36 61 94 119 126 240 198 367 220 82 15 165 -4 241 -55 46 -30 57 -44 81 -102
52 -124 146 -303 201 -379 85 -118 138 -176 289 -312 162 -148 179 -166 263
-281 96 -132 189 -332 280 -601 92 -271 102 -295 148 -371 18 -30 54 -113 79
-185 124 -346 146 -458 145 -754 0 -117 -5 -220 -11 -240 -6 -19 -14 -64 -19
-99 -9 -65 -29 -112 -133 -301 -25 -47 -53 -112 -61 -145 -18 -68 -20 -227 -5
-295 6 -25 13 -67 16 -93 l5 -49 22 21 21 20 61 -30 c33 -17 91 -35 128 -42
l68 -11 -7 -44 c-8 -57 9 -53 45 8 24 40 31 45 80 55 30 6 79 19 108 29 29 10
55 16 57 14 2 -2 8 -26 13 -53 l9 -50 26 55 27 56 79 12 c191 27 262 100 348
352 21 63 24 85 19 140 -9 87 -41 192 -115 385 -73 189 -92 261 -122 455 -29
183 -31 532 -5 699 48 310 3 701 -191 1676 -35 175 -36 187 -37 430 -2 211 -6
270 -25 380 -59 338 -208 801 -399 1245 -235 545 -548 1124 -735 1356 l-67 85
39 82 c21 45 53 127 71 182 18 55 74 206 125 335 123 310 191 503 269 762 201
669 237 1122 107 1352 -24 43 -33 51 -57 51 l-29 0 -7 -135 c-13 -267 -35
-372 -154 -727 -154 -462 -317 -835 -458 -1047 -36 -55 -66 -104 -66 -111 0
-22 -82 -181 -125 -240 -49 -69 -137 -155 -183 -179 -17 -9 -60 -20 -95 -25
-114 -16 -260 9 -537 94 -188 57 -300 75 -480 75 -280 0 -469 -41 -989 -212
-485 -158 -634 -195 -836 -205 -146 -7 -272 13 -382 59 -43 18 -175 97 -313
189 -234 156 -237 158 -265 216 -22 43 -70 100 -190 223 -88 91 -178 192 -200
225 -52 80 -84 170 -94 269 -9 94 -35 151 -109 244 -49 61 -73 116 -56 132 5
4 56 42 114 86 203 151 280 239 280 321 1 85 26 194 86 368 l58 170 2 140 c1
77 12 221 24 320 11 99 25 293 30 430 5 138 16 328 25 424 11 130 12 177 4
187 -15 19 -92 18 -156 -1 -75 -22 -151 -78 -313 -230 -113 -105 -163 -144
-225 -177 -60 -31 -101 -62 -167 -128 -77 -78 -92 -88 -132 -94 -67 -10 -132
-60 -209 -162 -37 -49 -86 -110 -108 -137 -41 -48 -129 -107 -161 -107 -9 0
-29 -11 -45 -24 -16 -14 -49 -32 -74 -42 -24 -10 -55 -25 -69 -35 -22 -15 -65
-17 -365 -22 -306 -4 -349 -7 -435 -27 -115 -27 -159 -27 -365 6 -189 31 -376
41 -458 25 -56 -10 -61 -9 -91 14 -18 14 -47 30 -64 36 -69 24 -452 502 -501
626 -21 51 -99 116 -207 171 l-99 51 -12 60 c-6 33 -23 86 -37 118 -42 90 -74
115 -96 74z"/>
</g>
</svg>
